<svg width="177" height="197" viewBox="0 0 177 197" fill="none" xmlns="http://www.w3.org/2000/svg">
<path d="M162.245 31.6705C157.631 28.8924 152.35 27.4188 146.964 27.4066C146.079 27.4066 145.19 27.4479 144.346 27.5304C141.821 27.7462 139.337 28.3013 136.96 29.1809C135.575 29.6566 134.233 30.2486 132.948 30.9507L117.121 39.3913L109.694 43.4031L55.9187 72.1912C51.1626 74.7174 47.1858 78.4932 44.4163 83.1119C41.6469 87.7306 40.1898 93.0172 40.2019 98.4025V124.403L60.0404 113.766V98.4025C60.0377 96.6171 60.5188 94.8643 61.4327 93.3304C62.3466 91.7965 63.659 90.5389 65.2304 89.6914L109.634 65.9283L117.066 61.9624L136.905 51.3256L142.223 48.4555C142.89 48.0914 143.598 47.8082 144.332 47.6119C145.14 47.3695 145.978 47.2414 146.822 47.2314C148.622 47.2454 150.385 47.7409 151.929 48.6664C153.393 49.5338 154.604 50.7696 155.441 52.2505C156.278 53.7314 156.713 55.4058 156.702 57.1071V112.991C156.711 114.779 156.232 116.534 155.316 118.07C154.401 119.605 153.084 120.861 151.508 121.703L59.9166 170.687V153.086L40.0781 163.722V186.307C40.0768 188.12 40.5469 189.902 41.4423 191.478C42.3378 193.055 43.6278 194.371 45.1856 195.298C46.8145 196.285 48.6869 196.796 50.5911 196.774C52.3116 196.77 54.0055 196.35 55.529 195.55L160.842 139.157C165.599 136.632 169.575 132.857 172.343 128.237C175.11 123.618 176.563 118.33 176.545 112.946V57.1621C176.623 52.0291 175.341 46.9668 172.83 42.4896C170.318 38.0123 166.666 34.2796 162.245 31.6705Z" fill="currentColor"/>
<path d="M117.121 70.3756V85.7394C117.13 87.5259 116.651 89.281 115.736 90.8158C114.822 92.3506 113.506 93.6072 111.931 94.4505L67.5274 118.214L60.0954 122.221L40.2569 132.858L32.8295 136.828L20.4184 143.494V71.0909C20.4146 69.3047 20.8958 67.5509 21.8107 66.0168C22.7255 64.4826 24.0397 63.2255 25.613 62.3797L102.601 21.1576C104.004 20.3747 105.58 19.954 107.186 19.9335C108.986 19.9493 110.749 20.4446 112.294 21.3685C113.757 22.237 114.968 23.4736 115.805 24.9552C116.642 26.4369 117.077 28.1119 117.066 29.8138V30.9095L129.349 24.3257C131.398 23.2233 133.547 22.319 135.768 21.6253C133.726 14.3611 128.964 8.16264 122.472 4.31758C118.075 1.67348 113.065 0.220746 107.936 0.102563C102.806 -0.0156209 97.7347 1.20481 93.2207 3.6436L16.1958 44.8795C11.4429 47.4084 7.46943 51.1851 4.7026 55.8035C1.93577 60.4219 0.480312 65.7072 0.492755 71.0909V159.055C0.490495 160.868 0.960234 162.651 1.85576 164.227C2.75129 165.803 4.04177 167.12 5.60024 168.046C7.22734 169.033 9.09802 169.546 11.0012 169.527C12.7217 169.523 14.4157 169.103 15.939 168.303L32.7378 159.312L40.1698 155.3L60.0083 144.663L67.4357 140.652L121.252 111.951C126.007 109.425 129.981 105.649 132.746 101.029C135.511 96.41 136.962 91.123 136.942 85.7394V59.7343L117.121 70.3756Z" fill="currentColor"/>
</svg>
