<svg xmlns="http://www.w3.org/2000/svg" viewBox="0 0 1018.79 621.87"><defs><style>.cls-1{fill:#333;fill-opacity:0;}.cls-2{fill:#a5fcf6;}.cls-3{fill:#d0c4fb;}.cls-4{fill:#81a8f8;}.cls-5{fill:#212121;}</style></defs><title>DappLearning</title><g id="图层_2" data-name="图层 2"><g id="Logo_彩色"><rect class="cls-1" x="315.5" width="387.48" height="397.76"/><g id="icon"><path id="左上" class="cls-2" d="M464.45,0H315.5V401.19h12.43L545.41,13.13C501,.61,464.45,0,464.45,0Z"/><g id="右"><path class="cls-3" d="M464.45,0H432.81L569.88,250.32H697.17A206.14,206.14,0,0,0,703,200.6C703,4,464.45,0,464.45,0Z"/></g><g id="下"><path class="cls-4" d="M412.48,250.32,327.93,401.19H464.45s196.46-3.3,232.78-150.87Z"/></g></g><path class="cls-5" d="M0,488.17H44.52q16.67,0,25.79,3.3,16.83,6.13,22.5,22.49a83.63,83.63,0,0,1,4.24,26.9A85.88,85.88,0,0,1,93,567.6q-4.09,12.9-13.52,19a37.12,37.12,0,0,1-13.14,5.12q-7.15,1.34-21.78,1.33H0Zm22.34,18.71v67.48H44.52q14.63,0,20.29-6.45,3.45-4.08,5.58-11.48a56.56,56.56,0,0,0,2.12-15.73,54.77,54.77,0,0,0-2.51-17q-2.52-7.69-6.61-11.48-6-5.34-18.87-5.35Z"/><path class="cls-5" d="M165,546.52q0-8-3.22-10.85T149,532.84H113.41V516.48H149q9.58,0,13.21.39a42.14,42.14,0,0,1,7.39,1.5Q187,525,186.08,550v43.1H141.72q-12,0-16.51-.71a20.6,20.6,0,0,1-8-2.91q-9.27-6.29-9.28-19a25.83,25.83,0,0,1,3.7-13.76,18.77,18.77,0,0,1,9.83-8.26q5.34-1.89,17.78-1.89Zm0,16.36H137.16a8.31,8.31,0,0,0-5.74,1.89A6.58,6.58,0,0,0,129.3,570a5.59,5.59,0,0,0,2.59,5.19q2.6,1.58,8.89,1.57H165Z"/><path class="cls-5" d="M205.74,516.48h36.81q10.69,0,16.2,1.34a27.72,27.72,0,0,1,10.54,5.26Q283,533.79,283,556q0,16.83-10.06,27.21a30.35,30.35,0,0,1-11.57,7.55,47,47,0,0,1-16,2.36H226.82v28.79H205.74Zm21.08,16.36v43.88h12.9q10.22,0,14.94-4.4,6.6-5.82,6.61-17.93,0-10.38-5.2-16t-14.94-5.58Z"/><path class="cls-5" d="M298.39,516.48h36.8q10.69,0,16.21,1.34a27.68,27.68,0,0,1,10.53,5.26q13.69,10.71,13.69,32.88,0,16.83-10.07,27.21A30.32,30.32,0,0,1,354,590.72a47.06,47.06,0,0,1-16,2.36H319.46v28.79H298.39Zm21.07,16.36v43.88h12.9q10.23,0,14.95-4.4,6.6-5.82,6.6-17.93,0-10.38-5.19-16t-14.94-5.58Z"/><path class="cls-5" d="M390.25,488.17h22.17v59q.48,11.18.95,14.79,1.1,7.23,6.92,9.83t20.45,2.59h21.39v18.72H438.38q-16.83,0-24.38-1.89-17.31-5-22-22-1.74-6.6-1.73-22Z"/><path class="cls-5" d="M537.32,546.52v16.36H493q.63,7.54,4.88,10.7t13.84,3.14h25.64v16.36h-28a55.25,55.25,0,0,1-14.87-1.65A33,33,0,0,1,483.68,586q-14-10.85-14-32.24a40.7,40.7,0,0,1,7.39-24.23,28.45,28.45,0,0,1,12.12-10.06q7.06-3,18.56-3h29.57v16.36h-28q-8.65,0-12.11,2.91T493,546.52Z"/><path class="cls-5" d="M607.31,546.52q0-8-3.22-10.85t-12.82-2.83H555.72V516.48h35.55q9.59,0,13.21.39a42.43,42.43,0,0,1,7.4,1.5Q629.33,525,628.39,550v43.1H584q-12,0-16.51-.71a20.49,20.49,0,0,1-8-2.91q-9.29-6.29-9.29-19a25.92,25.92,0,0,1,3.7-13.76,18.77,18.77,0,0,1,9.83-8.26q5.35-1.89,17.78-1.89Zm0,16.36H579.47a8.33,8.33,0,0,0-5.74,1.89,6.58,6.58,0,0,0-2.12,5.19,5.59,5.59,0,0,0,2.59,5.19q2.59,1.58,8.89,1.57h24.22Z"/><path class="cls-5" d="M648.05,516.48H679.2a63.75,63.75,0,0,1,14.86,1.34,20,20,0,0,1,8.73,4.48,17.06,17.06,0,0,1,4.88,7.86q1.41,4.73,1.41,13.53v7.39H688.79V547q0-8.18-2.83-11.16t-10.85-3h-6v60.24H648.05Z"/><path class="cls-5" d="M721.67,516.48h40.58q9.12,0,13.92,1.34a22.1,22.1,0,0,1,8.73,4.79q8,7.39,8,23.28v47.19H771.84V543.53q0-5.65-2.51-8.18T761,532.84H742.74v60.24H721.67Z"/><path class="cls-5" d="M812.58,508.61V488.17h21.08v20.44Zm0,7.87h21.08v76.6H812.58Z"/><path class="cls-5" d="M854.42,516.48H895q9.12,0,13.92,1.34a22.1,22.1,0,0,1,8.73,4.79q8,7.39,8,23.28v47.19H904.6V543.53q0-5.65-2.52-8.18t-8.33-2.51H875.5v60.24H854.42Z"/><path class="cls-5" d="M1018.79,516.48v76.13a40.56,40.56,0,0,1-1.49,11.48,24.09,24.09,0,0,1-4.33,8.5,18.52,18.52,0,0,1-8.73,6q-5.12,1.65-14.86,1.65h-42V603.94h39.17c4.61,0,7.63-.71,9-2.13s2.13-4.32,2.13-8.73H978.37a50.55,50.55,0,0,1-15.34-2,28.94,28.94,0,0,1-10.93-6.53q-11.49-10.86-11.48-29.89,0-21.71,14-31.62A32.57,32.57,0,0,1,965.23,518a56.74,56.74,0,0,1,14.24-1.49Zm-21.07,16.36H980.26q-18.25,0-18.25,22,0,10.7,5,16.28t14.4,5.58h16.36Z"/></g></g></svg>